Patient4_TMGait_0pt2_01_right_20_GRF.mot
version=1
nRows=26
nColumns=19
inDegrees=no
endheader
time	F1x	F1y	F1z	M1x	M1y	M1z	F2x	F2y	F2z	M2x	M2y	M2z	EC1x	EC1y	EC1z	EC2x	EC2y	EC2z
44.98	-1.1588	762.6504	57.0566	-293.3115	-51.0219	684.3217	8.7497	10.2554	-1.0746	2.8831	-0.75336	12.1476	-0.0592	0.0182	-0.0073	-0.0462	0.0165	0.9585
45.0018	-0.94935	775.6873	56.6196	-298.0695	-50.1385	694.8245	5.9671	7.8309	-0.67525	2.2632	-0.55902	9.1473	-0.0592	0.0182	-0.0073	-0.0462	0.0165	0.9585
45.0236	-0.50066	791.451	56.5901	-303.8656	-49.4651	707.6798	3.5862	5.7857	-0.34728	1.7456	-0.37689	6.6021	-0.0592	0.0182	-0.0073	-0.0462	0.0165	0.9585
45.0454	0.12549	808.6346	57.0466	-310.2027	-49.125	721.6966	1.754	4.249	-0.10947	1.3632	-0.21961	4.6711	-0.0592	0.0182	-0.0073	-0.0462	0.0165	0.9585
45.0671	0.83814	825.3454	57.924	-316.3641	-49.1198	735.1282	0.47348	3.2085	0.041448	1.1113	-0.092043	3.348	-0.0592	0.0182	-0.0073	-0.0462	0.0165	0.9585
45.0889	1.5938	839.5303	59.0238	-321.5838	-49.3049	746.0732	-0.33019	2.569	0.12159	0.96274	0.0042992	2.5265	-0.0592	0.0182	-0.0073	-0.0462	0.0165	0.9585
45.1107	2.4272	849.411	60.0649	-325.2094	-49.42	752.8796	-0.7644	2.1939	0.15457	0.87898	0.07002	2.0535	-0.0592	0.0182	-0.0073	-0.0462	0.0165	0.9585
45.1325	3.4307	853.8136	60.7652	-326.8173	-49.1737	754.4529	-0.93818	1.9291	0.16408	0.81533	0.10518	1.7537	-0.0592	0.0182	-0.0073	-0.0462	0.0165	0.9585
45.1543	4.7034	852.2698	60.9136	-326.245	-48.3349	750.364	-0.94114	1.6143	0.1714	0.72384	0.1044	1.4524	-0.0592	0.0182	-0.0073	-0.0462	0.0165	0.9585
45.1761	6.3072	844.9646	60.4017	-323.5692	-46.7795	740.8043	-0.83931	1.0983	0.19507	0.55754	0.060494	0.98743	-0.0592	0.0182	-0.0073	-0.0462	0.0165	0.9585
45.1979	8.241	832.636	59.2295	-319.0652	-44.5065	726.491	-0.67792	0.25016	0.24765	0.27536	-0.031064	0.21869	-0.0592	0.0182	-0.0073	-0.0462	0.0165	0.9585
45.2196	10.4333	816.462	57.4778	-313.1666	-41.6175	708.5478	-0.48468	-1.0209	0.33314	-0.15082	-0.17101	-0.94989	-0.0592	0.0182	-0.0073	-0.0462	0.0165	0.9585
45.2414	12.8014	797.9519	55.2796	-306.4311	-38.2633	688.3827	-0.27437	-2.7348	0.44657	-0.7268	-0.35251	-2.547	-0.0592	0.0182	-0.0073	-0.0462	0.0165	0.9585
45.2632	15.2965	778.7938	52.8146	-299.4874	-34.6257	667.5372	-0.059798	-4.7955	0.57617	-1.4222	-0.5574	-4.4901	-0.0592	0.0182	-0.0073	-0.0462	0.0165	0.9585
45.285	17.9112	760.6547	50.2876	-292.9574	-30.8927	647.4924	0.13799	-6.9302	0.70003	-2.1502	-0.75625	-6.5203	-0.0592	0.0182	-0.0073	-0.0462	0.0165	0.9585
45.3068	20.6722	744.9132	47.906	-287.3528	-27.2393	629.4546	0.28732	-8.6142	0.77871	-2.7419	-0.89938	-8.1295	-0.0592	0.0182	-0.0073	-0.0462	0.0165	0.9585
45.3286	23.602	732.3994	45.8624	-282.9752	-23.8301	614.1639	0.3416	-8.9914	0.75017	-2.9186	-0.90671	-8.4902	-0.0592	0.0182	-0.0073	-0.0462	0.0165	0.9585
45.3504	26.6689	723.2011	44.3149	-279.8377	-20.8208	601.7567	0.23522	-6.8141	0.5306	-2.2718	-0.66911	-6.3983	-0.0592	0.0182	-0.0073	-0.0462	0.0165	0.9585
45.3721	29.7497	716.4911	43.3626	-277.5969	-18.3518	591.6431	-0.1209	-0.43684	0.015383	-0.25941	-0.046951	-0.26936	-0.0592	0.0182	-0.0073	-0.0462	0.0165	0.9585
45.3939	32.6239	710.4741	43.0066	-275.5347	-16.5223	582.4808	-0.83921	12.0875	-0.91391	3.7654	1.1226	11.7679	-0.0592	0.0182	-0.0073	-0.0462	0.0165	0.9585
45.4157	35.0148	702.5939	43.1266	-272.6419	-15.3583	572.3346	-2.0425	32.7638	-2.3706	10.4767	3.0042	31.6335	-0.0592	0.0182	-0.0073	-0.0462	0.0165	0.9585
45.4375	36.6456	690.0041	43.473	-267.806	-14.7832	559.0371	-3.8353	63.1788	-4.4233	20.4217	5.7167	60.8332	-0.0592	0.0182	-0.0073	-0.0462	0.0165	0.9585
45.4593	37.2892	670.1462	43.6958	-260.0426	-14.6201	540.6385	-6.2753	103.7498	-7.0413	33.7764	9.2677	99.745	-0.0592	0.0182	-0.0073	-0.0462	0.0165	0.9585
45.4811	36.8402	641.3885	43.4253	-248.7389	-14.6229	515.8928	-9.5477	153.0083	-10.0837	50.0978	13.5913	146.9379	-0.0592	0.0182	-0.0073	-0.0462	0.0165	0.9585
45.5029	35.407	603.5444	42.3966	-233.8446	-14.539	484.6398	-13.8168	207.5001	-13.5813	68.2531	18.7616	199.1186	-0.0592	0.0182	-0.0073	-0.0462	0.0165	0.9585
45.5246	33.3379	558.0336	40.551	-215.9261	-14.1774	447.9056	-18.7402	262.8088	-17.6421	86.7575	24.7401	252.0687	-0.0592	0.0182	-0.0073	-0.0462	0.0165	0.9585
